<svg width="40" height="268" viewBox="0 0 40 268" fill="none" xmlns="http://www.w3.org/2000/svg">
<path d="M0 0H21C31.4934 0 40 8.50659 40 19C40 24.2467 35.7467 28.5 30.5 28.5H19.5C13.9772 28.5 9.5 32.9772 9.5 38.5V51.5C9.5 57.0228 13.9772 61.5 19.5 61.5H30C35.5228 61.5 40 65.9771 40 71.5V268H20C8.95431 268 0 259.046 0 248V0Z" fill="#161616"/>
<path d="M30.593 36.8806H29.4649V36.4193C29.4649 36.1887 29.2762 36 29.0456 36C28.8149 36 28.6262 36.1887 28.6262 36.4193V36.8806H22.1725V36.4193C22.1725 36.1887 21.9838 36 21.7531 36C21.5225 36 21.3338 36.1887 21.3338 36.4193V36.8806H20.2058C18.9897 36.8806 18 37.8703 18 39.0864V48.7942C18 50.0103 18.9897 51 20.2058 51H30.593C31.8091 51 32.7987 50.0103 32.7987 48.7942V39.0864C32.7987 37.8703 31.8091 36.8806 30.593 36.8806ZM20.2058 37.7193H21.3338V38.1806C21.3338 38.4112 21.5225 38.5999 21.7531 38.5999C21.9838 38.5999 22.1725 38.4112 22.1725 38.1806V37.7193H28.6283V38.1806C28.6283 38.4112 28.817 38.5999 29.0477 38.5999C29.2783 38.5999 29.467 38.4112 29.467 38.1806V37.7193H30.595C31.3478 37.7193 31.9621 38.3316 31.9621 39.0864V40.8036H18.8387V39.0864C18.8387 38.3337 19.453 37.7193 20.2058 37.7193ZM30.593 50.1613H20.2058C19.453 50.1613 18.8387 49.5491 18.8387 48.7942V41.6444H31.9579V48.7942C31.96 49.547 31.3457 50.1613 30.593 50.1613Z" fill="black"/>
<path d="M21.9322 42.7651H21.1082C20.5673 42.7651 20.127 43.2054 20.127 43.7464V44.5222C20.127 45.0632 20.5673 45.5035 21.1082 45.5035H21.9322C22.4732 45.5035 22.9135 45.0632 22.9135 44.5222V43.7464C22.9114 43.2054 22.4732 42.7651 21.9322 42.7651ZM22.0727 44.5222C22.0727 44.5998 22.0098 44.6648 21.9301 44.6648H21.1061C21.0285 44.6648 20.9635 44.6019 20.9635 44.5222V43.7464C20.9635 43.6688 21.0264 43.6038 21.1061 43.6038H21.9301C22.0077 43.6038 22.0727 43.6667 22.0727 43.7464V44.5222Z" fill="black"/>
<path d="M25.8097 42.7651H24.9857C24.4447 42.7651 24.0044 43.2054 24.0044 43.7464V44.5222C24.0044 45.0632 24.4447 45.5035 24.9857 45.5035H25.8097C26.3506 45.5035 26.7909 45.0632 26.7909 44.5222V43.7464C26.7909 43.2054 26.3506 42.7651 25.8097 42.7651ZM25.9523 44.5222C25.9523 44.5998 25.8894 44.6648 25.8097 44.6648H24.9857C24.9081 44.6648 24.8431 44.6019 24.8431 44.5222V43.7464C24.8431 43.6688 24.906 43.6038 24.9857 43.6038H25.8097C25.8873 43.6038 25.9523 43.6667 25.9523 43.7464V44.5222Z" fill="black"/>
<path d="M29.6905 42.7651H28.8665C28.3256 42.7651 27.8853 43.2054 27.8853 43.7464V44.5222C27.8853 45.0632 28.3256 45.5035 28.8665 45.5035H29.6905C30.2315 45.5035 30.6718 45.0632 30.6718 44.5222V43.7464C30.6718 43.2054 30.2315 42.7651 29.6905 42.7651ZM29.8331 44.5222C29.8331 44.5998 29.7702 44.6648 29.6905 44.6648H28.8665C28.7889 44.6648 28.7239 44.6019 28.7239 44.5222V43.7464C28.7239 43.6688 28.7868 43.6038 28.8665 43.6038H29.6905C29.7681 43.6038 29.8331 43.6667 29.8331 43.7464V44.5222Z" fill="black"/>
<path d="M21.9322 46.4111H21.1082C20.5673 46.4111 20.127 46.8514 20.127 47.3924V48.1682C20.127 48.7091 20.5673 49.1495 21.1082 49.1495H21.9322C22.4732 49.1495 22.9135 48.7091 22.9135 48.1682V47.3924C22.9114 46.8514 22.4732 46.4111 21.9322 46.4111ZM22.0727 48.1682C22.0727 48.2458 22.0098 48.3108 21.9301 48.3108H21.1061C21.0285 48.3108 20.9635 48.2479 20.9635 48.1682V47.3924C20.9635 47.3148 21.0264 47.2498 21.1061 47.2498H21.9301C22.0077 47.2498 22.0727 47.3127 22.0727 47.3924V48.1682Z" fill="black"/>
<path d="M25.8097 46.4111H24.9857C24.4447 46.4111 24.0044 46.8514 24.0044 47.3924V48.1682C24.0044 48.7091 24.4447 49.1495 24.9857 49.1495H25.8097C26.3506 49.1495 26.7909 48.7091 26.7909 48.1682V47.3924C26.7909 46.8514 26.3506 46.4111 25.8097 46.4111ZM25.9523 48.1682C25.9523 48.2458 25.8894 48.3108 25.8097 48.3108H24.9857C24.9081 48.3108 24.8431 48.2479 24.8431 48.1682V47.3924C24.8431 47.3148 24.906 47.2498 24.9857 47.2498H25.8097C25.8873 47.2498 25.9523 47.3127 25.9523 47.3924V48.1682Z" fill="black"/>
<path d="M29.6905 46.4111H28.8665C28.3256 46.4111 27.8853 46.8514 27.8853 47.3924V48.1682C27.8853 48.7091 28.3256 49.1495 28.8665 49.1495H29.6905C30.2315 49.1495 30.6718 48.7091 30.6718 48.1682V47.3924C30.6718 46.8514 30.2315 46.4111 29.6905 46.4111ZM29.8331 48.1682C29.8331 48.2458 29.7702 48.3108 29.6905 48.3108H28.8665C28.7889 48.3108 28.7239 48.2479 28.7239 48.1682V47.3924C28.7239 47.3148 28.7868 47.2498 28.8665 47.2498H29.6905C29.7681 47.2498 29.8331 47.3127 29.8331 47.3924V48.1682Z" fill="black"/>
</svg>
